<svg xmlns="http://www.w3.org/2000/svg" viewBox="0 0 64 64" style="enable-background:new 0 0 64 64" xml:space="preserve"><path d="M6 12c0-4.4 3.6-8 8-8h38c4.4 0 8 3.6 8 8v36c0 5.5-4.5 10-10 10H16c-5.5 0-10-4.5-10-10V12z" style="fill:#fff"/><path d="M8 12c0-2.2 1.8-4 4-4h10V4H12c-4.4 0-8 3.6-8 8v40c0 4.4 3.6 8 8 8h40c4.4 0 8-3.6 8-8V32v.2C60 43.1 44.5 52 25.3 52 15.8 52 8 49.3 8 46V12z" style="fill:#acbdc5"/><path d="M24 24v16h16V24H24zm-4-4V4h4v16h16V4h4v16h16v4H44v16h16v4H44v16h-4V44H24v16h-4V44H4v-4h16V24H4v-4h16z" style="fill-rule:evenodd;clip-rule:evenodd;fill:#314a52"/><path d="M52 6c-3.3 0-6 2.7-6 6s2.7 6 6 6 6-2.7 6-6-2.7-6-6-6zm-2 6c0-1.1.9-2 2-2s2 .9 2 2-.9 2-2 2-2-.9-2-2zM28.8 26l3.2 3.2 3.2-3.2 2.8 2.8-3.2 3.2 3.2 3.2-2.8 2.8-3.2-3.2-3.2 3.2-2.8-2.8 3.2-3.2-3.2-3.2 2.8-2.8z" style="fill-rule:evenodd;clip-rule:evenodd;fill:#597380"/></svg>